<?xml version="1.0" standalone="no"?>
<!DOCTYPE svg PUBLIC "-//W3C//DTD SVG 20010904//EN"
 "http://www.w3.org/TR/2001/REC-SVG-20010904/DTD/svg10.dtd">
 
<svg version="1.0" xmlns="http://www.w3.org/2000/svg"
 width="192.000000pt" height="192.000000pt" viewBox="0 0 192.000000 192.000000"
 preserveAspectRatio="xMidYMid meet"
>
  <g transform="translate(0.000000,192.000000) scale(0.100000,-0.100000)"
  fill="#0277BD" stroke="none">
  <path d="M575 1586 c-41 -18 -83 -69 -90 -109 -3 -18 -5 -262 -3 -544 3 -499
  4 -512 24 -539 11 -15 33 -37 48 -48 26 -20 42 -21 403 -24 366 -3 376 -2 419
  19 31 14 51 33 64 60 19 36 20 60 20 446 l0 409 -173 172 -173 172 -255 0
  c-188 -1 -262 -4 -284 -14z m505 -168 c4 -97 8 -121 26 -145 36 -49 77 -63
  192 -63 l102 0 0 -389 0 -389 -31 -26 -31 -26 -370 0 -370 0 -29 29 -29 29 0
  522 0 522 29 29 30 29 238 -2 238 -3 5 -117z m175 -38 l110 -110 -87 0 c-77 0
  -90 3 -115 24 -26 23 -28 31 -32 110 -1 47 1 86 6 86 4 0 58 -49 118 -110z"/>
  </g>
</svg>
