<?xml version="1.0" standalone="no"?>
<!DOCTYPE svg PUBLIC "-//W3C//DTD SVG 20010904//EN"
 "http://www.w3.org/TR/2001/REC-SVG-20010904/DTD/svg10.dtd">
 
<svg version="1.0" xmlns="http://www.w3.org/2000/svg"
 width="100.000000pt" height="100.000000pt" viewBox="0 0 100.000000 100.000000"
 preserveAspectRatio="xMidYMid meet"
>
  <g transform="translate(0.000000,100.000000) scale(0.100000,-0.100000)"
  fill="#fff" stroke="none">
  <path d="M372 862 c-62 -59 -112 -114 -112 -123 0 -20 20 -39 39 -39 9 0 49
  30 88 66 l73 65 2 -397 c3 -365 4 -398 20 -408 13 -8 23 -8 35 0 17 10 18 43
  21 408 l2 397 73 -65 c39 -36 79 -66 88 -66 20 0 39 20 39 41 0 19 -221 229
  -241 229 -8 -1 -65 -49 -127 -108z"/>
  </g>
</svg>
